<svg width="214" height="71" viewBox="0 0 214 71" fill="none" xmlns="http://www.w3.org/2000/svg">
<path d="M196.418 0.000230749H17.8537C17.2028 0.000230749 16.5597 0.000230749 15.9106 0.00378074C15.3671 0.00733073 14.8281 0.0176434 14.2794 0.0263232C13.0875 0.0403488 11.8985 0.145206 10.7225 0.339982C9.54821 0.538999 8.41071 0.914203 7.34846 1.4529C6.28751 1.99616 5.31809 2.70207 4.47536 3.54502C3.62822 4.3856 2.92205 5.35719 2.38403 6.42244C1.84452 7.48558 1.47042 8.62482 1.27466 9.80083C1.07703 10.9753 0.970687 12.1634 0.956579 13.3544C0.940107 13.8986 0.938367 14.4446 0.929688 14.9889V56.0166C0.938367 56.5677 0.940107 57.1016 0.956579 57.6529C0.970691 58.8438 1.07704 60.0318 1.27466 61.2063C1.46988 62.383 1.844 63.5229 2.38403 64.5864C2.92181 65.6482 3.62807 66.6159 4.47536 67.4518C5.31489 68.2985 6.28494 69.0049 7.34846 69.544C8.4107 70.0841 9.54808 70.4616 10.7225 70.6636C11.8987 70.8569 13.0876 70.9618 14.2794 70.9775C14.8281 70.9895 15.3671 70.9965 15.9106 70.9965C16.5597 71 17.2028 71 17.8537 71H196.418C197.056 71 197.704 71 198.342 70.9965C198.883 70.9965 199.438 70.9895 199.979 70.9775C201.168 70.9626 202.355 70.8577 203.529 70.6636C204.707 70.4601 205.848 70.0828 206.916 69.544C207.978 69.0046 208.947 68.2982 209.786 67.4518C210.631 66.6126 211.339 65.6457 211.884 64.5864C212.42 63.5221 212.79 62.3823 212.983 61.2063C213.18 60.0317 213.291 58.8439 213.312 57.6529C213.319 57.1016 213.319 56.5677 213.319 56.0166C213.333 55.3717 213.333 54.7304 213.333 54.0751V16.9268C213.333 16.2768 213.333 15.632 213.319 14.9889C213.319 14.4446 213.319 13.8986 213.312 13.3543C213.291 12.1632 213.18 10.9754 212.983 9.80076C212.79 8.62543 212.419 7.48627 211.884 6.42237C210.788 4.28719 209.051 2.54917 206.916 1.45274C205.848 0.91536 204.707 0.540256 203.529 0.339823C202.355 0.144188 201.168 0.0392944 199.979 0.0260747C199.438 0.0174127 198.883 0.00701123 198.342 0.00354999C197.704 0 197.056 0.000230749 196.418 0.000230749Z" fill="#A6A6A6"/>
<path d="M15.9192 69.4466C15.3784 69.4466 14.8506 69.4397 14.3141 69.4276C13.2025 69.4132 12.0936 69.3164 10.9964 69.1381C9.97324 68.9619 8.98211 68.6342 8.05566 68.1656C7.13771 67.701 6.30046 67.0917 5.57599 66.3612C4.84104 65.6392 4.22916 64.8019 3.76459 63.8824C3.29491 62.9569 2.96986 61.9649 2.80077 60.9409C2.61817 59.8406 2.51937 58.728 2.50523 57.6127C2.49398 57.2384 2.47925 55.992 2.47925 55.992V14.9886C2.47925 14.9886 2.49494 13.7614 2.50532 13.4008C2.51886 12.2873 2.61708 11.1765 2.79914 10.0779C2.96854 9.05112 3.29384 8.05623 3.76378 7.1277C4.22663 6.20881 4.83512 5.37087 5.56564 4.64635C6.29535 3.91495 7.13527 3.30254 8.05479 2.83147C8.97911 2.36444 9.96837 2.03897 10.9894 1.86598C12.0903 1.68593 13.2031 1.58859 14.3184 1.57477L15.9201 1.5531H198.334L199.954 1.57564C201.06 1.58878 202.162 1.68525 203.253 1.86424C204.284 2.0394 205.284 2.36714 206.219 2.83667C208.061 3.78602 209.56 5.28798 210.505 7.13203C210.968 8.05416 211.288 9.04093 211.455 10.0589C211.64 11.1665 211.743 12.286 211.764 13.4086C211.769 13.9113 211.769 14.4513 211.769 14.9886C211.783 15.6543 211.783 16.2878 211.783 16.9266V54.0748C211.783 54.7197 211.783 55.3489 211.769 55.9833C211.769 56.5605 211.769 57.0893 211.762 57.6335C211.741 58.7361 211.64 59.8357 211.459 60.9235C211.293 61.9548 210.97 62.9546 210.5 63.8877C210.032 64.7972 209.424 65.6273 208.698 66.3473C207.973 67.0818 207.134 67.6946 206.214 68.1622C205.281 68.6344 204.283 68.9634 203.253 69.1381C202.156 69.3173 201.047 69.4141 199.935 69.4276C199.415 69.4397 198.871 69.4466 198.342 69.4466L196.418 69.4502L15.9192 69.4466Z" fill="black"/>
<path d="M44.8958 36.0336C44.9149 34.5521 45.3084 33.0994 46.0397 31.8109C46.7711 30.5223 47.8165 29.4397 49.0786 28.6637C48.2768 27.5185 47.219 26.5761 45.9892 25.9113C44.7595 25.2465 43.3916 24.8776 41.9944 24.8338C39.0137 24.521 36.1241 26.6174 34.6052 26.6174C33.057 26.6174 30.7184 24.8649 28.2002 24.9167C26.5713 24.9693 24.9838 25.443 23.5925 26.2915C22.2011 27.1401 21.0532 28.3346 20.2608 29.7587C16.8279 35.7021 19.3885 44.4369 22.6769 49.2411C24.3221 51.5936 26.2449 54.2214 28.7609 54.1282C31.2229 54.0261 32.1424 52.5583 35.1143 52.5583C38.0586 52.5583 38.9213 54.1282 41.4883 54.069C44.1302 54.0261 45.7947 51.706 47.3822 49.3313C48.5643 47.655 49.4739 45.8024 50.0774 43.8421C48.5425 43.1929 47.2327 42.1063 46.3113 40.7177C45.3899 39.3292 44.8976 37.7001 44.8958 36.0336Z" fill="white"/>
<path d="M40.0475 21.6742C41.488 19.945 42.1976 17.7224 42.0258 15.4784C39.8251 15.7095 37.7923 16.7613 36.3324 18.4242C35.6186 19.2365 35.0719 20.1816 34.7235 21.2054C34.3752 22.2291 34.2321 23.3115 34.3023 24.3906C35.403 24.402 36.492 24.1634 37.4872 23.6929C38.4823 23.2223 39.3578 22.5321 40.0475 21.6742Z" fill="white"/>
<path d="M76.0169 48.1727H67.6151L65.5975 54.1304H62.0388L69.9968 32.0885H73.6941L81.6522 54.1304H78.0328L76.0169 48.1727ZM68.4853 45.4235H75.1451L71.862 35.7547H71.7702L68.4853 45.4235Z" fill="white"/>
<path d="M98.8387 46.096C98.8387 51.09 96.1658 54.2985 92.1322 54.2985C91.1104 54.3519 90.0942 54.1165 89.2 53.6193C88.3058 53.122 87.5696 52.383 87.0759 51.4869H86.9996V59.4466H83.7009V38.06H86.8939V40.7329H86.9546C87.471 39.841 88.2196 39.1059 89.1206 38.6056C90.0217 38.1053 91.0415 37.8587 92.0715 37.8919C96.1501 37.8919 98.8387 41.116 98.8387 46.096ZM95.4482 46.096C95.4482 42.8425 93.7668 40.7035 91.2014 40.7035C88.681 40.7035 86.9857 42.8875 86.9857 46.096C86.9857 49.334 88.681 51.5025 91.2014 51.5025C93.7668 51.5025 95.4482 49.3791 95.4482 46.096Z" fill="white"/>
<path d="M116.526 46.096C116.526 51.0899 113.854 54.2984 109.82 54.2984C108.798 54.3519 107.782 54.1165 106.888 53.6193C105.994 53.122 105.257 52.383 104.764 51.4868H104.687V59.4466H101.389V38.06H104.582V40.7329H104.642C105.159 39.841 105.907 39.1058 106.808 38.6056C107.709 38.1053 108.729 37.8587 109.759 37.8919C113.838 37.8919 116.526 41.116 116.526 46.096ZM113.136 46.096C113.136 42.8425 111.455 40.7034 108.889 40.7034C106.369 40.7034 104.673 42.8875 104.673 46.096C104.673 49.334 106.369 51.5025 108.889 51.5025C111.455 51.5025 113.136 49.3791 113.136 46.096Z" fill="white"/>
<path d="M128.216 47.9889C128.461 50.1747 130.584 51.6099 133.486 51.6099C136.266 51.6099 138.267 50.1747 138.267 48.2038C138.267 46.4929 137.06 45.4685 134.203 44.7665L131.347 44.0783C127.299 43.1007 125.42 41.2078 125.42 38.1362C125.42 34.3332 128.735 31.7209 133.441 31.7209C138.098 31.7209 141.291 34.3332 141.399 38.1362H138.069C137.87 35.9366 136.051 34.6088 133.394 34.6088C130.737 34.6088 128.918 35.9522 128.918 37.9074C128.918 39.4658 130.08 40.3827 132.921 41.0847L135.349 41.681C139.872 42.7505 141.751 44.5671 141.751 47.7912C141.751 51.9149 138.466 54.4977 133.241 54.4977C128.353 54.4977 125.053 51.9756 124.84 47.9888L128.216 47.9889Z" fill="white"/>
<path d="M148.87 34.257V38.06H151.926V40.6722H148.87V49.5316C148.87 50.9079 149.481 51.5493 150.825 51.5493C151.188 51.543 151.55 51.5175 151.91 51.473V54.0696C151.306 54.1824 150.692 54.2335 150.078 54.2221C146.824 54.2221 145.555 53.0001 145.555 49.8834V40.6722H143.219V38.06H145.555V34.257H148.87Z" fill="white"/>
<path d="M153.695 46.096C153.695 41.0397 156.673 37.8624 161.317 37.8624C165.976 37.8624 168.941 41.0397 168.941 46.096C168.941 51.1662 165.992 54.3297 161.317 54.3297C156.644 54.3297 153.695 51.1662 153.695 46.096ZM165.579 46.096C165.579 42.6275 163.99 40.5804 161.317 40.5804C158.644 40.5804 157.056 42.6431 157.056 46.096C157.056 49.5784 158.644 51.61 161.317 51.61C163.99 51.61 165.579 49.5784 165.579 46.096Z" fill="white"/>
<path d="M171.66 38.06H174.807V40.7953H174.883C175.096 39.941 175.596 39.186 176.3 38.6573C177.004 38.1285 177.869 37.8582 178.748 37.8918C179.128 37.8905 179.508 37.9318 179.878 38.0149V41.1003C179.399 40.9537 178.898 40.8864 178.396 40.901C177.917 40.8816 177.439 40.9661 176.996 41.1487C176.552 41.3313 176.154 41.6077 175.827 41.959C175.501 42.3102 175.254 42.728 175.104 43.1836C174.954 43.6392 174.905 44.1218 174.959 44.5983V54.1303H171.66L171.66 38.06Z" fill="white"/>
<path d="M195.087 49.4103C194.643 52.3276 191.802 54.3297 188.167 54.3297C183.493 54.3297 180.591 51.1974 180.591 46.1723C180.591 41.1316 183.508 37.8624 188.029 37.8624C192.475 37.8624 195.271 40.9167 195.271 45.7892V46.9194H183.921V47.1187C183.868 47.7102 183.942 48.306 184.138 48.8666C184.333 49.4272 184.646 49.9398 185.055 50.3703C185.464 50.8008 185.96 51.1394 186.509 51.3636C187.059 51.5878 187.65 51.6925 188.244 51.6706C189.023 51.7437 189.806 51.5631 190.474 51.1559C191.143 50.7486 191.662 50.1364 191.955 49.4103L195.087 49.4103ZM183.936 44.614H191.971C192 44.0822 191.92 43.55 191.734 43.0509C191.548 42.5518 191.261 42.0964 190.891 41.7134C190.521 41.3304 190.075 41.0281 189.583 40.8254C189.09 40.6226 188.561 40.5239 188.029 40.5353C187.492 40.5321 186.959 40.6353 186.462 40.839C185.965 41.0427 185.513 41.3427 185.133 41.7219C184.752 42.1011 184.451 42.5519 184.245 43.0483C184.04 43.5447 183.935 44.0768 183.936 44.614Z" fill="white"/>
<path d="M68.0712 15.4975C68.7628 15.4479 69.4567 15.5523 70.103 15.8034C70.7493 16.0544 71.3318 16.4458 71.8086 16.9492C72.2853 17.4526 72.6444 18.0556 72.8599 18.7146C73.0754 19.3736 73.1419 20.0722 73.0547 20.7601C73.0547 24.1436 71.226 26.0886 68.0712 26.0886H64.2456V15.4975H68.0712ZM65.8906 24.5908H67.8875C68.3816 24.6203 68.8762 24.5393 69.3351 24.3536C69.794 24.1679 70.2057 23.8822 70.5403 23.5174C70.8748 23.1525 71.1238 22.7176 71.2691 22.2443C71.4144 21.7711 71.4524 21.2714 71.3802 20.7816C71.4472 20.2938 71.4054 19.7972 71.2578 19.3275C71.1103 18.8577 70.8607 18.4263 70.5269 18.0644C70.1931 17.7024 69.7833 17.4187 69.327 17.2337C68.8707 17.0487 68.3791 16.9669 67.8875 16.9942H65.8906V24.5908Z" fill="white"/>
<path d="M74.9133 22.0886C74.8631 21.5633 74.9232 21.0334 75.0897 20.5327C75.2563 20.032 75.5257 19.5717 75.8806 19.1812C76.2355 18.7908 76.6681 18.4788 77.1506 18.2653C77.6331 18.0518 78.1549 17.9415 78.6826 17.9415C79.2103 17.9415 79.7321 18.0518 80.2146 18.2653C80.6971 18.4788 81.1297 18.7908 81.4846 19.1812C81.8395 19.5717 82.1089 20.032 82.2755 20.5327C82.442 21.0334 82.5021 21.5633 82.4519 22.0886C82.5031 22.6144 82.4437 23.1451 82.2776 23.6465C82.1114 24.148 81.8422 24.6092 81.4873 25.0004C81.1323 25.3917 80.6994 25.7043 80.2163 25.9183C79.7333 26.1322 79.2109 26.2427 78.6826 26.2427C78.1543 26.2427 77.6319 26.1322 77.1489 25.9183C76.6658 25.7043 76.2329 25.3917 75.878 25.0004C75.523 24.6092 75.2538 24.148 75.0876 23.6465C74.9215 23.1451 74.8621 22.6144 74.9133 22.0886ZM80.8294 22.0886C80.8294 20.3561 80.0511 19.3429 78.6852 19.3429C77.3141 19.3429 76.5428 20.3561 76.5428 22.0886C76.5428 23.835 77.3141 24.8404 78.6852 24.8404C80.0511 24.8403 80.8294 23.828 80.8294 22.0886Z" fill="white"/>
<path d="M92.4722 26.0884H90.8359L89.184 20.2018H89.0592L87.4142 26.0884H85.7935L83.5903 18.0957H85.1903L86.622 24.1946H86.7399L88.3832 18.0957H89.8964L91.5397 24.1946H91.6645L93.0893 18.0957H94.6667L92.4722 26.0884Z" fill="white"/>
<path d="M96.5195 18.0957H98.038V19.3655H98.1559C98.3558 18.9094 98.6931 18.5271 99.1206 18.2719C99.5482 18.0166 100.045 17.9011 100.541 17.9415C100.93 17.9122 101.32 17.9709 101.684 18.113C102.047 18.2552 102.373 18.4773 102.639 18.7628C102.905 19.0483 103.103 19.3899 103.218 19.7623C103.334 20.1347 103.365 20.5284 103.307 20.9142V26.0883H101.73V21.3103C101.73 20.0259 101.172 19.3871 100.005 19.3871C99.7413 19.3748 99.4778 19.4198 99.2327 19.5189C98.9877 19.618 98.7669 19.7689 98.5857 19.9613C98.4044 20.1536 98.2669 20.3829 98.1825 20.6334C98.0981 20.884 98.0689 21.1497 98.0969 21.4126V26.0884H96.5195L96.5195 18.0957Z" fill="white"/>
<path d="M105.821 14.9756H107.398V26.0884H105.821V14.9756Z" fill="white"/>
<path d="M109.592 22.0886C109.541 21.5633 109.601 21.0333 109.768 20.5326C109.935 20.032 110.204 19.5716 110.559 19.1811C110.914 18.7907 111.347 18.4787 111.829 18.2652C112.312 18.0517 112.834 17.9414 113.361 17.9414C113.889 17.9414 114.411 18.0517 114.893 18.2652C115.376 18.4787 115.809 18.7907 116.163 19.1811C116.518 19.5716 116.788 20.032 116.954 20.5326C117.121 21.0333 117.181 21.5633 117.131 22.0886C117.182 22.6144 117.123 23.1451 116.956 23.6466C116.79 24.1481 116.521 24.6092 116.166 25.0005C115.811 25.3917 115.378 25.7043 114.895 25.9183C114.412 26.1322 113.89 26.2427 113.361 26.2427C112.833 26.2427 112.31 26.1322 111.827 25.9183C111.344 25.7043 110.911 25.3917 110.556 25.0005C110.201 24.6092 109.932 24.1481 109.766 23.6466C109.6 23.1451 109.54 22.6144 109.592 22.0886ZM115.508 22.0886C115.508 20.3561 114.729 19.3429 113.363 19.3429C111.992 19.3429 111.221 20.3561 111.221 22.0886C111.221 23.835 111.992 24.8404 113.363 24.8404C114.729 24.8404 115.508 23.8281 115.508 22.0886Z" fill="white"/>
<path d="M118.79 23.828C118.79 22.3893 119.862 21.5599 121.763 21.442L123.928 21.3172V20.6273C123.928 19.7831 123.37 19.3064 122.292 19.3064C121.411 19.3064 120.801 19.6297 120.626 20.1948H119.099C119.26 18.822 120.551 17.9414 122.365 17.9414C124.368 17.9414 125.499 18.939 125.499 20.6273V26.0883H123.98V24.9651H123.855C123.602 25.368 123.246 25.6965 122.824 25.917C122.403 26.1374 121.93 26.242 121.455 26.22C121.119 26.2549 120.78 26.2191 120.459 26.1149C120.138 26.0108 119.843 25.8405 119.592 25.6151C119.341 25.3897 119.14 25.1143 119.002 24.8065C118.864 24.4987 118.792 24.1653 118.79 23.828ZM123.928 23.145V22.4768L121.976 22.6016C120.876 22.6753 120.376 23.0497 120.376 23.7543C120.376 24.4737 121 24.8923 121.858 24.8923C122.11 24.9177 122.364 24.8923 122.605 24.8176C122.847 24.7429 123.071 24.6204 123.264 24.4574C123.457 24.2944 123.615 24.0942 123.729 23.8687C123.843 23.6433 123.911 23.3972 123.928 23.145Z" fill="white"/>
<path d="M127.572 22.0886C127.572 19.563 128.87 17.9631 130.889 17.9631C131.389 17.9401 131.885 18.0597 132.319 18.3081C132.753 18.5564 133.107 18.9231 133.34 19.3654H133.458V14.9756H135.036V26.0884H133.524V24.8256H133.399C133.148 25.2649 132.781 25.627 132.339 25.8728C131.896 26.1186 131.395 26.2387 130.889 26.2201C128.856 26.2202 127.572 24.6202 127.572 22.0886ZM129.201 22.0886C129.201 23.7839 130 24.804 131.337 24.804C132.666 24.804 133.488 23.7691 133.488 22.0955C133.488 20.4297 132.657 19.3802 131.337 19.3802C130.009 19.3802 129.201 20.4072 129.201 22.0886Z" fill="white"/>
<path d="M141.562 22.0886C141.512 21.5633 141.572 21.0334 141.739 20.5327C141.905 20.032 142.175 19.5717 142.529 19.1812C142.884 18.7908 143.317 18.4788 143.8 18.2653C144.282 18.0518 144.804 17.9415 145.332 17.9415C145.859 17.9415 146.381 18.0518 146.864 18.2653C147.346 18.4788 147.779 18.7908 148.134 19.1812C148.488 19.5717 148.758 20.032 148.924 20.5327C149.091 21.0334 149.151 21.5633 149.101 22.0886C149.152 22.6144 149.093 23.1451 148.926 23.6465C148.76 24.148 148.491 24.6092 148.136 25.0004C147.781 25.3917 147.348 25.7043 146.865 25.9183C146.382 26.1322 145.86 26.2427 145.332 26.2427C144.803 26.2427 144.281 26.1322 143.798 25.9183C143.315 25.7043 142.882 25.3917 142.527 25.0004C142.172 24.6092 141.903 24.148 141.737 23.6465C141.57 23.1451 141.511 22.6144 141.562 22.0886ZM147.478 22.0886C147.478 20.3561 146.7 19.3429 145.334 19.3429C143.963 19.3429 143.192 20.3561 143.192 22.0886C143.192 23.835 143.963 24.8404 145.334 24.8404C146.7 24.8403 147.478 23.828 147.478 22.0886Z" fill="white"/>
<path d="M151.217 18.0957H152.735V19.3655H152.853C153.053 18.9094 153.39 18.5271 153.818 18.2719C154.245 18.0166 154.742 17.9011 155.238 17.9415C155.627 17.9122 156.018 17.9709 156.381 18.113C156.744 18.2552 157.071 18.4773 157.336 18.7628C157.602 19.0483 157.8 19.3899 157.916 19.7623C158.031 20.1347 158.062 20.5284 158.005 20.9142V26.0883H156.427V21.3103C156.427 20.0259 155.869 19.3871 154.703 19.3871C154.439 19.3748 154.175 19.4198 153.93 19.5189C153.685 19.618 153.464 19.7689 153.283 19.9613C153.102 20.1536 152.964 20.3829 152.88 20.6334C152.795 20.884 152.766 21.1497 152.794 21.4126V26.0884H151.217V18.0957Z" fill="white"/>
<path d="M166.918 16.1058V18.1322H168.649V19.4608H166.918V23.5707C166.918 24.4079 167.263 24.7745 168.048 24.7745C168.249 24.7739 168.45 24.7617 168.649 24.7381V26.052C168.366 26.1027 168.079 26.1297 167.791 26.1326C166.037 26.1326 165.339 25.5155 165.339 23.9746V19.4608H164.07V18.1321H165.339V16.1058H166.918Z" fill="white"/>
<path d="M170.806 14.9756H172.369V19.3801H172.494C172.704 18.9199 173.05 18.5354 173.487 18.2792C173.923 18.023 174.427 17.9075 174.931 17.9484C175.318 17.9273 175.705 17.9919 176.064 18.1375C176.423 18.2832 176.745 18.5062 177.008 18.7908C177.271 19.0754 177.468 19.4145 177.585 19.784C177.702 20.1534 177.736 20.5441 177.684 20.9281V26.0884H176.105V21.3172C176.105 20.0405 175.51 19.394 174.396 19.394C174.125 19.3718 173.852 19.409 173.597 19.5032C173.342 19.5974 173.11 19.7462 172.918 19.9392C172.727 20.1322 172.579 20.3647 172.487 20.6206C172.395 20.8764 172.359 21.1494 172.383 21.4203V26.0883H170.806L170.806 14.9756Z" fill="white"/>
<path d="M186.881 23.9303C186.666 24.6608 186.202 25.2926 185.569 25.7153C184.936 26.1381 184.174 26.3247 183.417 26.2426C182.891 26.2565 182.367 26.1557 181.884 25.9471C181.4 25.7384 180.968 25.4271 180.616 25.0346C180.265 24.642 180.003 24.1778 179.85 23.674C179.696 23.1702 179.653 22.639 179.725 22.1172C179.655 21.5937 179.698 21.0614 179.852 20.5561C180.005 20.0508 180.266 19.5844 180.615 19.1884C180.964 18.7925 181.395 18.4762 181.877 18.2611C182.359 18.0459 182.882 17.9369 183.41 17.9414C185.634 17.9414 186.976 19.4608 186.976 21.9707V22.5211H181.332V22.6095C181.307 22.9028 181.344 23.198 181.44 23.4762C181.536 23.7545 181.69 24.0095 181.89 24.2251C182.09 24.4407 182.334 24.612 182.604 24.7281C182.875 24.8442 183.166 24.9025 183.461 24.8992C183.838 24.9445 184.22 24.8766 184.559 24.704C184.897 24.5315 185.177 24.2621 185.362 23.9302L186.881 23.9303ZM181.332 21.3545H185.369C185.389 21.0862 185.353 20.8168 185.262 20.5634C185.172 20.3101 185.029 20.0785 184.844 19.8835C184.659 19.6885 184.435 19.5345 184.186 19.4312C183.938 19.3279 183.671 19.2778 183.402 19.2839C183.129 19.2805 182.858 19.3317 182.605 19.4346C182.353 19.5374 182.123 19.6898 181.93 19.8828C181.737 20.0758 181.585 20.3054 181.482 20.5581C181.38 20.8109 181.329 21.0817 181.332 21.3545Z" fill="white"/>
</svg>
