<svg width="187" height="38" viewBox="0 0 187 38" fill="none" xmlns="http://www.w3.org/2000/svg">
<g clip-path="url(#clip0_1_80)">
<path d="M70.9228 31.2033H60.4188C57.99 31.2033 56.0288 29.2019 56.0288 26.7349V3.44457C56.0288 1.75309 54.7673 0.352659 53.1559 0.169473C53.0382 0.152353 52.9137 0.147217 52.7893 0.147217H49.4707V26.7435C49.4707 32.8691 54.3956 37.8819 60.4137 37.8819H74.169V34.5092C74.169 32.6859 72.7158 31.205 70.9228 31.205" fill="white"/>
<path d="M98.2685 31.2033H87.7645C85.3357 31.2033 83.3694 29.2019 83.3694 26.7349V3.44457C83.3694 1.6264 81.9212 0.147217 80.135 0.147217H76.8164V26.7435C76.8164 32.8742 81.7295 37.8819 87.7645 37.8819H101.513V34.5092C101.513 32.6859 100.06 31.205 98.2668 31.205" fill="white"/>
<path d="M149.302 10.3388C148.568 5.46984 143.808 0.210519 136.122 0.210519L118.631 0.171143C118.631 1.84036 118.647 3.50273 118.647 3.50273C118.647 5.32603 120.096 6.80008 121.882 6.80008C121.882 6.80008 132.542 6.83432 135.22 6.83432C146.715 6.83432 145.002 20.8455 133.959 16.6082C128.125 14.3689 122.183 16.7743 119.736 21.8967C119.038 23.3587 118.647 24.9989 118.647 26.7434V34.5845C118.647 36.4026 120.096 37.8818 121.882 37.8818H125.2V26.7434C125.2 22.323 128.795 22.1483 129.829 22.2836L135.422 23.2269C146.195 25.2231 150.355 17.365 149.3 10.3388" fill="white"/>
<path d="M181.613 27.7056C180.502 25.658 178.97 21.8436 176.429 19.0394C178.97 16.1888 180.502 12.3693 181.613 10.3217L184.363 4.97682C184.965 3.80066 185.727 2.59711 187 0.171182C183.061 0.171182 182.622 0.148926 181.49 0.148926H181.406C180.2 0.148926 179.095 0.825174 178.538 1.90888L175.793 7.19731C170.873 16.3515 171.832 15.7095 166.591 15.7095C164.428 15.7095 162.416 10.7018 160.46 7.19731L157.722 1.90888C157.158 0.825174 156.053 0.148926 154.854 0.148926H154.77C153.609 0.148926 152.02 0.171182 149.365 0.171182C150.627 2.56801 151.303 3.82463 151.895 4.98367L154.65 10.3235C155.755 12.371 157.281 16.1906 159.822 19.0411C157.281 21.8454 155.754 25.6597 154.65 27.7073L151.895 33.0522C151.332 34.1479 150.164 36.3616 149.365 37.8819H154.854C156.053 37.8819 157.158 37.2056 157.722 36.1202L160.46 30.8318C165.38 21.7358 164.426 22.3829 169.662 22.3829C171.832 22.3829 173.837 27.3324 175.793 30.8318L178.538 36.1202C179.096 37.2039 180.2 37.8819 181.406 37.8819H187.002C186.28 36.5054 184.995 34.2849 184.364 33.0522L181.614 27.7073L181.613 27.7056Z" fill="white"/>
<path d="M110.044 0.145508H106.798V34.5811C106.798 36.3992 108.251 37.8784 110.037 37.8784H113.356V3.51819C113.356 1.66065 111.874 0.145508 110.042 0.145508" fill="white"/>
<path d="M34.1208 25.4045C30.4137 24.504 27.5896 26.8323 25.0936 28.8799C24.6882 29.2189 24.266 29.5681 23.8253 29.9122C21.6388 31.6328 18.7928 32.0865 16.2177 31.1346C13.6308 30.1776 11.8109 28.0547 11.2205 25.3018C11.0052 24.3156 10.8488 23.2884 10.7361 22.2441H41.7553C43.5349 22.2441 44.9763 20.7769 44.9763 18.9656V15.7812H10.7479C10.837 14.8516 10.9783 13.9408 11.1583 13.0505C11.7167 10.2685 13.5921 8.00864 16.179 7.00539C18.776 5.99701 21.5597 6.39249 23.8085 8.0891C24.3552 8.5017 24.8732 8.92115 25.3694 9.32176C27.7864 11.2717 30.2892 13.2902 33.6027 12.78C36.8372 12.287 39.964 9.81482 45.0133 0.167586H40.5208C38.8405 0.167586 37.2695 1.03216 36.3528 2.46683C30.5079 11.6039 31.4347 1.74778 21.1779 0.167586C13.1683 -1.06507 6.38987 4.61028 4.93831 11.7494C4.75834 12.6328 4.55314 14.0521 4.42363 15.7829H3.19914C1.43305 15.7829 0 17.2399 0 19.0392V22.2458H4.40344C4.50941 23.713 4.70284 25.2144 5.01737 26.6799C7.53026 38.4347 19.178 38.2669 21.3579 37.8817C31.0293 36.1714 30.5163 26.5395 36.3948 35.6081C37.3149 37.0274 38.8758 37.8817 40.546 37.8817H45.052C40.8538 29.8352 37.6193 26.2554 34.1208 25.4079" fill="white"/>
</g>
<defs>
<clipPath id="clip0_1_80">
<rect width="187" height="38" fill="white"/>
</clipPath>
</defs>
</svg>
